<mxfile modified="2021-12-28T03:38:53.034Z" host="app.diagrams.net" agent="5.0 (Macintosh; Intel Mac OS X 10_15_7) AppleWebKit/537.36 (KHTML, like Gecko) Chrome/96.0.4664.110 Safari/537.36" etag="YRZg0pSwNGcwV8MHUTmE" version="16.1.0" type="github">
  <diagram id="Ht1M8jgEwFfnCIfOTk4-" name="Page-1">
    <mxGraphModel dx="1426" dy="946" grid="1" gridSize="10" guides="1" tooltips="1" connect="1" arrows="1" fold="1" page="1" pageScale="1" pageWidth="1169" pageHeight="827" math="0" shadow="0">
      <root>
        <mxCell id="0" />
        <mxCell id="1" parent="0" />
        <mxCell id="2NDLf1Hz4DVKDM8EWIT5-22" value="" style="rounded=0;whiteSpace=wrap;html=1;fillColor=#dae8fc;strokeColor=#6c8ebf;" vertex="1" parent="1">
          <mxGeometry x="500" y="200" width="440" height="190" as="geometry" />
        </mxCell>
        <mxCell id="2NDLf1Hz4DVKDM8EWIT5-9" value="" style="rounded=0;whiteSpace=wrap;html=1;direction=south;fillColor=#f5f5f5;fontColor=#333333;strokeColor=#666666;strokeWidth=2;" vertex="1" parent="1">
          <mxGeometry x="240" y="40" width="160" height="354" as="geometry" />
        </mxCell>
        <mxCell id="2NDLf1Hz4DVKDM8EWIT5-12" style="edgeStyle=orthogonalEdgeStyle;rounded=0;orthogonalLoop=1;jettySize=auto;html=1;" edge="1" parent="1" source="2NDLf1Hz4DVKDM8EWIT5-3" target="2NDLf1Hz4DVKDM8EWIT5-10">
          <mxGeometry relative="1" as="geometry">
            <Array as="points">
              <mxPoint x="200" y="129" />
              <mxPoint x="200" y="210" />
            </Array>
          </mxGeometry>
        </mxCell>
        <mxCell id="2NDLf1Hz4DVKDM8EWIT5-30" style="edgeStyle=orthogonalEdgeStyle;rounded=0;orthogonalLoop=1;jettySize=auto;html=1;" edge="1" parent="1" source="2NDLf1Hz4DVKDM8EWIT5-3" target="2NDLf1Hz4DVKDM8EWIT5-28">
          <mxGeometry relative="1" as="geometry" />
        </mxCell>
        <mxCell id="2NDLf1Hz4DVKDM8EWIT5-3" value="" style="sketch=0;outlineConnect=0;fontColor=#232F3E;gradientColor=none;fillColor=#B0084D;strokeColor=none;dashed=0;verticalLabelPosition=bottom;verticalAlign=top;align=center;html=1;fontSize=12;fontStyle=0;aspect=fixed;pointerEvents=1;shape=mxgraph.aws4.endpoint;" vertex="1" parent="1">
          <mxGeometry x="281" y="90" width="78" height="78" as="geometry" />
        </mxCell>
        <mxCell id="2NDLf1Hz4DVKDM8EWIT5-4" value="OSU-VALIDATE" style="text;html=1;resizable=0;autosize=1;align=center;verticalAlign=middle;points=[];fillColor=none;strokeColor=none;rounded=0;" vertex="1" parent="1">
          <mxGeometry x="270" y="178" width="100" height="20" as="geometry" />
        </mxCell>
        <mxCell id="2NDLf1Hz4DVKDM8EWIT5-16" style="edgeStyle=orthogonalEdgeStyle;rounded=0;orthogonalLoop=1;jettySize=auto;html=1;" edge="1" parent="1" source="2NDLf1Hz4DVKDM8EWIT5-5" target="2NDLf1Hz4DVKDM8EWIT5-15">
          <mxGeometry relative="1" as="geometry" />
        </mxCell>
        <mxCell id="2NDLf1Hz4DVKDM8EWIT5-5" value="" style="sketch=0;outlineConnect=0;fontColor=#232F3E;gradientColor=none;fillColor=#B0084D;strokeColor=none;dashed=0;verticalLabelPosition=bottom;verticalAlign=top;align=center;html=1;fontSize=12;fontStyle=0;aspect=fixed;pointerEvents=1;shape=mxgraph.aws4.endpoint;" vertex="1" parent="1">
          <mxGeometry x="281" y="244" width="78" height="78" as="geometry" />
        </mxCell>
        <mxCell id="2NDLf1Hz4DVKDM8EWIT5-6" value="CREATE SESSION" style="text;html=1;resizable=0;autosize=1;align=center;verticalAlign=middle;points=[];fillColor=none;strokeColor=none;rounded=0;" vertex="1" parent="1">
          <mxGeometry x="260" y="332" width="120" height="20" as="geometry" />
        </mxCell>
        <mxCell id="2NDLf1Hz4DVKDM8EWIT5-11" style="edgeStyle=orthogonalEdgeStyle;rounded=0;orthogonalLoop=1;jettySize=auto;html=1;" edge="1" parent="1" source="2NDLf1Hz4DVKDM8EWIT5-10" target="2NDLf1Hz4DVKDM8EWIT5-3">
          <mxGeometry relative="1" as="geometry">
            <Array as="points">
              <mxPoint x="200" y="210" />
              <mxPoint x="200" y="129" />
            </Array>
          </mxGeometry>
        </mxCell>
        <mxCell id="2NDLf1Hz4DVKDM8EWIT5-10" value="" style="shadow=0;dashed=0;html=1;strokeColor=none;fillColor=#4495D1;labelPosition=center;verticalLabelPosition=bottom;verticalAlign=top;align=center;outlineConnect=0;shape=mxgraph.veeam.2d.web_ui;" vertex="1" parent="1">
          <mxGeometry x="60" y="160" width="100" height="100" as="geometry" />
        </mxCell>
        <mxCell id="2NDLf1Hz4DVKDM8EWIT5-13" value="SFMC" style="text;html=1;resizable=0;autosize=1;align=center;verticalAlign=middle;points=[];fillColor=none;strokeColor=none;rounded=0;" vertex="1" parent="1">
          <mxGeometry x="295" y="50" width="50" height="20" as="geometry" />
        </mxCell>
        <mxCell id="2NDLf1Hz4DVKDM8EWIT5-27" style="edgeStyle=orthogonalEdgeStyle;rounded=0;orthogonalLoop=1;jettySize=auto;html=1;" edge="1" parent="1" source="2NDLf1Hz4DVKDM8EWIT5-14" target="2NDLf1Hz4DVKDM8EWIT5-24">
          <mxGeometry relative="1" as="geometry" />
        </mxCell>
        <mxCell id="2NDLf1Hz4DVKDM8EWIT5-14" value="" style="sketch=0;html=1;aspect=fixed;strokeColor=none;shadow=0;align=center;verticalAlign=top;fillColor=#3B8DF1;shape=mxgraph.gcp2.process" vertex="1" parent="1">
          <mxGeometry x="780" y="233" width="84" height="100" as="geometry" />
        </mxCell>
        <mxCell id="2NDLf1Hz4DVKDM8EWIT5-20" style="edgeStyle=orthogonalEdgeStyle;rounded=0;orthogonalLoop=1;jettySize=auto;html=1;" edge="1" parent="1" source="2NDLf1Hz4DVKDM8EWIT5-15" target="2NDLf1Hz4DVKDM8EWIT5-14">
          <mxGeometry relative="1" as="geometry" />
        </mxCell>
        <mxCell id="2NDLf1Hz4DVKDM8EWIT5-15" value="" style="shape=image;html=1;verticalAlign=top;verticalLabelPosition=bottom;labelBackgroundColor=#ffffff;imageAspect=0;aspect=fixed;image=https://cdn0.iconfinder.com/data/icons/font-awesome-brands-vol-2/640/salesforce-128.png" vertex="1" parent="1">
          <mxGeometry x="550" y="219" width="128" height="128" as="geometry" />
        </mxCell>
        <mxCell id="2NDLf1Hz4DVKDM8EWIT5-17" value="session_data" style="text;html=1;resizable=0;autosize=1;align=center;verticalAlign=middle;points=[];fillColor=none;strokeColor=none;rounded=0;" vertex="1" parent="1">
          <mxGeometry x="400" y="260" width="90" height="20" as="geometry" />
        </mxCell>
        <mxCell id="2NDLf1Hz4DVKDM8EWIT5-19" value="session records created" style="text;html=1;align=center;verticalAlign=middle;resizable=0;points=[];autosize=1;strokeColor=none;fillColor=none;" vertex="1" parent="1">
          <mxGeometry x="544" y="344" width="140" height="20" as="geometry" />
        </mxCell>
        <mxCell id="2NDLf1Hz4DVKDM8EWIT5-21" value="orch process&lt;br&gt;" style="text;html=1;align=center;verticalAlign=middle;resizable=0;points=[];autosize=1;strokeColor=none;fillColor=none;" vertex="1" parent="1">
          <mxGeometry x="780" y="344" width="80" height="20" as="geometry" />
        </mxCell>
        <mxCell id="2NDLf1Hz4DVKDM8EWIT5-23" value="SFDC" style="text;html=1;align=center;verticalAlign=middle;resizable=0;points=[];autosize=1;strokeColor=none;fillColor=none;" vertex="1" parent="1">
          <mxGeometry x="695" y="219" width="50" height="20" as="geometry" />
        </mxCell>
        <mxCell id="2NDLf1Hz4DVKDM8EWIT5-24" value="" style="html=1;verticalLabelPosition=bottom;align=center;labelBackgroundColor=#ffffff;verticalAlign=top;strokeWidth=2;strokeColor=#0080F0;shadow=0;dashed=0;shape=mxgraph.ios7.icons.mail;" vertex="1" parent="1">
          <mxGeometry x="787" y="90" width="70" height="43.25" as="geometry" />
        </mxCell>
        <mxCell id="2NDLf1Hz4DVKDM8EWIT5-25" value="activation email&lt;br&gt;" style="text;html=1;align=center;verticalAlign=middle;resizable=0;points=[];autosize=1;strokeColor=none;fillColor=none;" vertex="1" parent="1">
          <mxGeometry x="772" y="70" width="100" height="20" as="geometry" />
        </mxCell>
        <mxCell id="2NDLf1Hz4DVKDM8EWIT5-31" style="edgeStyle=orthogonalEdgeStyle;rounded=0;orthogonalLoop=1;jettySize=auto;html=1;" edge="1" parent="1" source="2NDLf1Hz4DVKDM8EWIT5-28" target="2NDLf1Hz4DVKDM8EWIT5-3">
          <mxGeometry relative="1" as="geometry" />
        </mxCell>
        <mxCell id="2NDLf1Hz4DVKDM8EWIT5-28" value="" style="sketch=0;outlineConnect=0;fontColor=#232F3E;gradientColor=none;fillColor=#B0084D;strokeColor=none;dashed=0;verticalLabelPosition=bottom;verticalAlign=top;align=center;html=1;fontSize=12;fontStyle=0;aspect=fixed;pointerEvents=1;shape=mxgraph.aws4.endpoint;" vertex="1" parent="1">
          <mxGeometry x="490" y="31" width="78" height="78" as="geometry" />
        </mxCell>
        <mxCell id="2NDLf1Hz4DVKDM8EWIT5-29" value="totalCheck&lt;br&gt;" style="text;html=1;align=center;verticalAlign=middle;resizable=0;points=[];autosize=1;strokeColor=none;fillColor=none;" vertex="1" parent="1">
          <mxGeometry x="494" y="120" width="70" height="20" as="geometry" />
        </mxCell>
        <mxCell id="2NDLf1Hz4DVKDM8EWIT5-32" value="OSU" style="text;html=1;align=center;verticalAlign=middle;resizable=0;points=[];autosize=1;strokeColor=none;fillColor=none;" vertex="1" parent="1">
          <mxGeometry x="90" y="270" width="40" height="20" as="geometry" />
        </mxCell>
      </root>
    </mxGraphModel>
  </diagram>
</mxfile>
